<?xml version="1.0" encoding="utf-8"?>
<!-- Generator: Adobe Illustrator 18.0.0, SVG Export Plug-In . SVG Version: 6.00 Build 0)  -->
<!DOCTYPE svg PUBLIC "-//W3C//DTD SVG 1.1//EN" "http://www.w3.org/Graphics/SVG/1.1/DTD/svg11.dtd">
<svg version="1.1" id="Capa_1" xmlns="http://www.w3.org/2000/svg" xmlns:xlink="http://www.w3.org/1999/xlink" x="0px" y="0px"
	 viewBox="0 123.3 595.3 595.3" enable-background="new 0 123.3 595.3 595.3" xml:space="preserve">
<g>
	<g>
		<g>
			<polygon points="205.9,478 49.6,634.3 49.6,520.2 0,520.2 0,718.6 198.4,718.6 198.4,669 86.8,669 243.1,512.7 			"/>
			<polygon points="545.7,634.3 84.3,172.9 198.4,172.9 198.4,123.3 0,123.3 0,321.7 49.6,321.7 49.6,207.6 510.9,669 396.9,669 
				396.9,718.6 595.3,718.6 595.3,520.2 545.7,520.2 			"/>
			<polygon points="396.9,123.3 396.9,172.9 513.4,172.9 357.2,329.2 391.9,363.9 545.7,210.1 545.7,321.7 595.3,321.7 595.3,123.3 
							"/>
		</g>
	</g>
</g>
</svg>
