<?xml version="1.0" encoding="utf-8"?>
<!-- Generator: Adobe Illustrator 18.0.0, SVG Export Plug-In . SVG Version: 6.00 Build 0)  -->
<!DOCTYPE svg PUBLIC "-//W3C//DTD SVG 1.1//EN" "http://www.w3.org/Graphics/SVG/1.1/DTD/svg11.dtd">
<svg version="1.1" id="Camada_1" xmlns="http://www.w3.org/2000/svg" xmlns:xlink="http://www.w3.org/1999/xlink" x="0px" y="0px"
	 viewBox="0 0 256 256" enable-background="new 0 0 256 256" xml:space="preserve">
<g>
	<rect fill="#0071BC" width="256" height="256"/>
	<g>
		<path fill="#FFFFFF" d="M54.2,167.9C57,178.8,67.3,185,79.8,185c15.1,0,24.9-7.7,24.9-22.1c0-8-4.1-14.2-11.2-20.1
			c-13.9-11.6-32.2-19.7-32.2-40.2c0-28.1,25.1-46.6,53-46.6c14.6,0,27.4,3.2,27.4,13.9c0,6-6.2,12.8-11.7,15.3
			c-5.7-9.1-11.9-14.6-23.8-14.6c-12.6,0-21,6-21,18.1c0,10.9,6,14.9,30.1,33.4c9.1,8.2,14.8,16.9,14.8,29.5c0,29-30.4,48.2-58,48.2
			c-15.1,0-35.4-6.2-35.4-19c0-7.1,6.9-16.2,17.3-19.2C53.5,163.8,53.6,165.8,54.2,167.9z"/>
		<path fill="#FFFFFF" d="M163.4,64.2c5.3,0,8.7,3.2,8.7,8.9c0-0.9-5.3,34.3-14.6,71c21.3-29.5,37.2-44.5,48-44.5
			c6,0,9.3,5.9,10.1,17.4c-10.1,0-21.7,6.4-36.3,23.1c0,0.5-0.2,1.2-0.2,2c0,1.6,0.4,3.4,0.9,5.2c4.3,13,10.3,28.3,22.9,28.3
			c4.4,0,9.4-1.8,15.3-5.5c0.4-0.2,0.5-0.4,0.7-0.4c0.2,0,0.4,0.4,0.4,0.7c0,0.5-0.2,0.9-0.4,1.2c-4.8,12.3-18.5,24.4-29.5,24.4
			c-10.5,0-19-10.5-28.8-39c-4.4,8.2-7.3,15.7-13.2,29.9c-2.5,6.4-5.7,9.6-14.8,9.6c-3.6,0-8-0.5-13.7-1.4
			c13.5-35.4,21.9-74.9,27-115.3c0-0.7,0.2-1.2,0.2-1.8c0-2.8-0.7-5.2-2.1-8.2c6.9-3.9,12.6-5.3,18.1-5.7
			C162.7,64.2,163,64.2,163.4,64.2z"/>
	</g>
</g>
</svg>
